<svg t="1698062362289" class="icon" viewBox="0 0 1024 1024" version="1.1" xmlns="http://www.w3.org/2000/svg" p-id="5101" width="16" height="16"><path d="M224 341.333333A117.333333 117.333333 0 0 1 341.333333 224h85.333334a32 32 0 0 1 0 64H341.333333c-29.44 0-53.333333 23.893333-53.333333 53.333333v64a32 32 0 0 1-64 0V341.333333z m341.333333-85.333333a32 32 0 0 1 32-32h85.333334A117.333333 117.333333 0 0 1 800 341.333333v64a32 32 0 0 1-64 0V341.333333c0-29.44-23.893333-53.333333-53.333333-53.333333h-85.333334a32 32 0 0 1-32-32zM256 586.666667a32 32 0 0 1 32 32V682.666667c0 29.44 23.893333 53.333333 53.333333 53.333333h85.333334a32 32 0 0 1 0 64H341.333333A117.333333 117.333333 0 0 1 224 682.666667v-64a32 32 0 0 1 32-32z m512 0a32 32 0 0 1 32 32V682.666667A117.333333 117.333333 0 0 1 682.666667 800h-85.333334a32 32 0 0 1 0-64h85.333334c29.44 0 53.333333-23.893333 53.333333-53.333333v-64a32 32 0 0 1 32-32z" fill="#666666" p-id="5102"></path></svg>