<svg t="1698061920722" class="icon" viewBox="0 0 1024 1024" version="1.1" xmlns="http://www.w3.org/2000/svg" p-id="4017" width="16" height="16"><path d="M771.766278 954.596304c-12.719696 0-24.176632-8.81169-27.025517-21.74321-3.294023-14.94027 6.148024-29.722952 21.089317-33.016974 31.82073-7.014764 61.039191-23.636327 86.85516-49.414433 20.716834-20.697391 37.313837-45.228087 49.308009-72.924893 0.162706-0.37453 0.331551-0.747014 0.511653-1.115404 4.451382-9.135054 2.998287-19.984147-3.521197-27.623128-16.379039-10.500145-118.211309-70.160943-181.610244-107.088994-0.475837-0.260943-0.941442-0.535189-1.401929-0.830925-4.906753-3.103688-11.449773-2.373047-15.564487 1.734504-0.908696 0.908696-1.667989 1.934049-2.251274 3.045359-0.281409 0.538259-0.577145 1.067308-0.893346 1.584078-16.780175 27.492144-42.892903 48.062646-73.526597 57.921177-36.119639 11.620665-75.66633 7.429203-108.505249-11.509125-0.718361-0.410346-1.417279-0.859577-2.099824-1.336438-2.568499-1.808182-63.404052-44.703131-100.892875-82.138742-37.487799-37.439704-80.446193-98.191346-82.254376-100.754728-0.484024-0.681522-0.930185-1.38044-1.343601-2.097778-18.975167-32.816406-23.176862-72.339562-11.531638-108.435665 9.876951-30.606065 30.479175-56.691163 58.012252-73.443709 0.517793-0.312108 1.041726-0.61296 1.579985-0.892323 1.116427-0.581238 2.140757-1.339508 3.054569-2.24718 4.093225-4.087085 4.821819-10.586103 1.734504-15.443737-0.299829-0.475837-0.586354-0.952698-0.855484-1.438769-36.970006-63.307861-96.690156-164.951843-107.210767-181.313485-7.670703-6.534833-18.579147-7.982812-27.754111-3.526313-0.370437 0.180102-0.73985 0.349971-1.11438 0.5137-27.739784 11.983939-52.319599 28.557406-73.036433 49.250704-36.040844 35.986609-53.56087 76.82062-53.56087 124.8321 0 51.867298 20.946055 112.072495 62.263066 178.933275 38.264489 61.938678 94.14417 129.768529 166.085666 201.603601 116.060319 115.89659 219.606627 188.577936 307.763432 216.017892 14.613836 4.545526 22.765493 20.073174 18.218944 34.68087-4.546549 14.606673-20.073174 22.75833-34.68087 18.21792-96.79965-30.130228-207.979822-107.416452-330.448084-229.714845C144.856156 552.803311 62.556755 411.581939 62.556755 295.142997c0-62.58643 23.48897-117.773334 69.811995-164.03189 25.550932-25.518187 55.726186-45.931099 89.690742-60.682058 30.889521-14.690584 67.781756-8.372691 92.003414 15.818267 3.469008 3.467985 5.053086 5.047969 61.019749 100.136651 25.953092 44.096311 51.761897 88.278579 53.607942 91.439572 7.845689 12.688997 11.30344 27.823696 9.749038 42.715871-1.612731 15.416108-8.5487 29.955242-19.533892 40.925085-4.630461 4.624321-9.875928 8.54256-15.601326 11.645225-15.875572 9.860579-27.743878 25.01779-33.470299 42.754756-6.719028 20.825304-4.462638 43.583634 6.169513 62.647829 5.783727 8.104585 43.822065 60.903092 75.383898 92.429109 31.561833 31.513738 84.435041 69.49784 92.554976 75.277474 19.111267 10.631128 41.939181 12.888542 62.822814 6.17156 17.766642-5.721305 32.95046-17.573237 42.825364-33.43039 3.107781-5.713119 7.031137-10.952446 11.661597-15.57779 10.987239-10.970866 25.526373-17.890462 40.945551-19.498076 14.888082-1.548262 30.022781 1.90335 42.723034 9.722432 3.203972 1.871627 47.423079 27.628244 91.555206 53.534264 95.220688 55.886845 96.80579 57.466829 100.273774 60.927651 24.24417 24.213471 30.573319 61.09445 15.84999 91.973738-14.771425 33.920554-35.220153 64.058968-60.776202 89.584318-33.402761 33.353642-71.782883 54.991452-114.077152 64.317864C775.747963 954.385503 773.740236 954.596304 771.766278 954.596304L771.766278 954.596304 771.766278 954.596304z" p-id="4018"></path></svg>